<svg width="177" height="178" xmlns="http://www.w3.org/2000/svg" xmlns:xlink="http://www.w3.org/1999/xlink" overflow="hidden"><defs><clipPath id="clip0"><path d="M250 271 427 271 427 449 250 449Z" fill-rule="evenodd" clip-rule="evenodd"/></clipPath></defs><g clip-path="url(#clip0)" transform="translate(-250 -271)"><path d="M51.3194 197.944 44.7415 164.594C2.42597 140.717-12.5212 87.057 11.3562 44.7414 35.2335 2.42592 88.8934-12.5212 131.209 11.3561 173.524 35.2334 188.472 88.8933 164.594 131.209 146.97 162.442 112.152 179.851 76.5916 175.211Z" fill="#7BC142" fill-rule="evenodd" transform="matrix(-0.897342 0.441337 0.441337 0.897342 378.705 242.23)"/><path d="M370 380C370 397.673 356.345 412 339.5 412 322.655 412 309 397.673 309 380" stroke="#000000" stroke-width="8" stroke-linecap="square" stroke-miterlimit="8" fill="#F2F2F2" fill-rule="evenodd"/><path d="M289 342C289 329.85 298.626 320 310.5 320 322.374 320 332 329.85 332 342 332 354.15 322.374 364 310.5 364 298.626 364 289 354.15 289 342Z" stroke="#000000" stroke-width="6" stroke-miterlimit="8" fill="#F6E162" fill-rule="evenodd"/><path d="M347 342C347 329.85 356.626 320 368.5 320 380.374 320 390 329.85 390 342 390 354.15 380.374 364 368.5 364 356.626 364 347 354.15 347 342Z" stroke="#000000" stroke-width="6" stroke-miterlimit="8" fill="#F6E162" fill-rule="evenodd"/><path d="M330.699 342.654C335.532 337.821 343.367 337.821 348.2 342.654" stroke="#000000" stroke-width="5.33333" stroke-miterlimit="8" fill="none" fill-rule="evenodd"/><path d="M301.142 342.651C305.975 337.819 313.81 337.819 318.643 342.651" stroke="#000000" stroke-width="5.33333" stroke-linecap="round" stroke-linejoin="round" stroke-miterlimit="10" fill="none" fill-rule="evenodd"/><path d="M359.13 342.651C363.963 337.819 371.798 337.819 376.631 342.651" stroke="#000000" stroke-width="5.33333" stroke-linecap="round" stroke-linejoin="round" stroke-miterlimit="10" fill="none" fill-rule="evenodd"/></g></svg>